<svg width="157" height="123" viewBox="0 0 157 123" fill="none" xmlns="http://www.w3.org/2000/svg">
<path d="M88.7633 35.0668H77.3225V31.1775C82.0448 29.9143 80.3776 22.9119 75.5977 23.9347C71.847 24.8165 71.855 30.2991 75.5977 31.1775V35.0668H64.1569C61.587 35.068 59.5023 37.161 59.5 39.744V52.1651C59.5 52.6436 59.8864 53.0319 60.3624 53.0319C60.8384 53.0319 61.2248 52.6436 61.2248 52.1651V39.744C61.2271 38.1179 62.5391 36.8004 64.1569 36.8004H88.7633C90.3811 36.8004 91.6931 38.1179 91.6954 39.744V59.4892C91.6931 61.1153 90.3811 62.4328 88.7633 62.4328H64.1569C62.523 62.4189 61.2098 61.076 61.2236 59.4337C61.2547 58.9483 60.8453 58.5369 60.3624 58.5669C59.8749 58.5935 59.4954 59.0015 59.5 59.4915C59.5035 62.0745 61.587 64.1652 64.1569 64.1663H88.7633C91.332 64.164 93.4144 62.071 93.4167 59.4892V39.744C93.4144 37.1621 91.3332 35.0691 88.7633 35.0668ZM74.4812 27.5659L74.4778 27.5705C74.5157 24.954 78.3872 24.9459 78.4378 27.5613C78.3976 30.1801 74.5261 30.1836 74.4812 27.5659Z" fill="white" stroke="white" stroke-width="0.7"/>
<path d="M69.1582 56.8828C69.1582 57.3613 69.5445 57.7496 70.0206 57.7496H82.8987C83.3747 57.7496 83.7611 57.3613 83.7611 56.8828C83.7611 56.4044 83.3747 56.016 82.8987 56.016H70.0206C69.5434 56.016 69.1582 56.4044 69.1582 56.8828Z" fill="white" stroke="white" stroke-width="0.7"/>
<path d="M68.9053 42.1689C64.3013 42.2845 64.299 49.0685 68.903 49.1864C73.5081 49.0697 73.5058 42.2915 68.9053 42.1689ZM68.9053 47.4494V47.4528C66.5838 47.4147 66.5815 43.943 68.903 43.9025C71.2245 43.9418 71.2245 47.4055 68.9053 47.4494Z" fill="white" stroke="white" stroke-width="0.7"/>
<path d="M84.0153 42.166C79.4102 42.2839 79.4125 49.0679 84.0165 49.1835C88.6181 49.061 88.6192 42.2827 84.0153 42.166ZM82.2503 45.6747C82.2894 43.3414 85.7435 43.3414 85.7826 45.6747C85.7435 48.0081 82.2929 48.007 82.2503 45.6747Z" fill="white" stroke="white" stroke-width="0.7"/>
<path d="M46.2969 121C46.0729 121 45.9609 120.888 45.9609 120.664V115.704C45.9609 115.48 46.0729 115.368 46.2969 115.368C46.5209 115.368 46.6329 115.48 46.6329 115.704V117.372C46.7716 117.231 46.9449 117.124 47.1529 117.052C47.3609 116.98 47.6036 116.944 47.8809 116.944H48.1849C48.7182 116.944 49.1129 117.072 49.3689 117.328C49.6249 117.584 49.7529 117.979 49.7529 118.512V119.432C49.7529 119.963 49.6249 120.357 49.3689 120.616C49.1129 120.872 48.7182 121 48.1849 121H47.8809C47.6036 121 47.3609 120.964 47.1529 120.892C46.9449 120.82 46.7716 120.715 46.6329 120.576V120.664C46.6329 120.888 46.5209 121 46.2969 121ZM47.8809 120.328H48.1849C48.5342 120.328 48.7702 120.265 48.8929 120.14C49.0182 120.012 49.0809 119.776 49.0809 119.432V118.512C49.0809 118.163 49.0169 117.927 48.8889 117.804C48.7636 117.679 48.5289 117.616 48.1849 117.616H47.8809C47.5289 117.616 47.2329 117.661 46.9929 117.752C46.7529 117.84 46.6329 117.979 46.6329 118.168V119.776C46.6329 119.963 46.7529 120.101 46.9929 120.192C47.2329 120.283 47.5289 120.328 47.8809 120.328ZM52.2985 122.6C51.9119 122.6 51.6225 122.503 51.4305 122.308C51.2412 122.116 51.1465 121.827 51.1465 121.44C51.1465 121.216 51.2585 121.104 51.4825 121.104C51.7065 121.104 51.8185 121.216 51.8185 121.44C51.8185 121.64 51.8479 121.771 51.9065 121.832C51.9679 121.896 52.0985 121.928 52.2985 121.928H53.8505C54.0479 121.928 54.1772 121.896 54.2385 121.832C54.2999 121.771 54.3305 121.64 54.3305 121.44V120.424C54.1705 120.664 53.9839 120.82 53.7705 120.892C53.5599 120.964 53.3305 121 53.0825 121H52.6905C52.1625 121 51.7732 120.875 51.5225 120.624C51.2719 120.373 51.1465 119.987 51.1465 119.464V117.28C51.1465 117.056 51.2585 116.944 51.4825 116.944C51.7065 116.944 51.8185 117.056 51.8185 117.28V119.464C51.8185 119.8 51.8785 120.028 51.9985 120.148C52.1212 120.268 52.3519 120.328 52.6905 120.328H53.0825C53.5199 120.328 53.8372 120.257 54.0345 120.116C54.2319 119.972 54.3305 119.755 54.3305 119.464V117.28C54.3305 117.056 54.4425 116.944 54.6665 116.944C54.8905 116.944 55.0025 117.056 55.0025 117.28V121.44C55.0025 121.827 54.9065 122.116 54.7145 122.308C54.5225 122.503 54.2345 122.6 53.8505 122.6H52.2985ZM60.5557 121C60.025 121 59.6303 120.872 59.3717 120.616C59.1157 120.357 58.9877 119.963 58.9877 119.432V118.504C58.9877 117.971 59.1143 117.576 59.3677 117.32C59.6237 117.064 60.0197 116.939 60.5557 116.944H61.2117C61.609 116.944 61.921 117.011 62.1477 117.144C62.377 117.277 62.5237 117.483 62.5877 117.76C62.6117 117.872 62.5917 117.959 62.5277 118.02C62.4663 118.081 62.377 118.112 62.2597 118.112C62.1557 118.112 62.0797 118.085 62.0317 118.032C61.9837 117.979 61.9397 117.904 61.8997 117.808C61.8597 117.736 61.7863 117.687 61.6797 117.66C61.573 117.631 61.417 117.616 61.2117 117.616H60.5557C60.2117 117.611 59.9757 117.671 59.8477 117.796C59.7223 117.919 59.6597 118.155 59.6597 118.504V119.432C59.6597 119.779 59.7223 120.015 59.8477 120.14C59.9757 120.265 60.2117 120.328 60.5557 120.328H61.2117C61.417 120.328 61.573 120.315 61.6797 120.288C61.7863 120.259 61.8597 120.208 61.8997 120.136C61.9397 120.035 61.9837 119.959 62.0317 119.908C62.0823 119.857 62.161 119.832 62.2677 119.832C62.3797 119.832 62.4663 119.863 62.5277 119.924C62.5917 119.985 62.6117 120.072 62.5877 120.184C62.5237 120.459 62.377 120.664 62.1477 120.8C61.921 120.933 61.609 121 61.2117 121H60.5557ZM65.3603 121C64.8297 121 64.435 120.872 64.1763 120.616C63.9203 120.36 63.7923 119.968 63.7923 119.44V118.512C63.7923 117.976 63.9203 117.581 64.1763 117.328C64.435 117.072 64.8297 116.944 65.3603 116.944H66.0163C66.5497 116.944 66.9443 117.072 67.2003 117.328C67.4563 117.584 67.5843 117.979 67.5843 118.512V119.432C67.5843 119.963 67.4563 120.357 67.2003 120.616C66.9443 120.872 66.5497 121 66.0163 121H65.3603ZM64.4643 119.44C64.4643 119.784 64.527 120.019 64.6523 120.144C64.7777 120.267 65.0137 120.328 65.3603 120.328H66.0163C66.3657 120.328 66.6017 120.265 66.7243 120.14C66.8497 120.015 66.9123 119.779 66.9123 119.432V118.512C66.9123 118.163 66.8497 117.927 66.7243 117.804C66.6017 117.679 66.3657 117.616 66.0163 117.616H65.3603C65.1283 117.616 64.947 117.643 64.8163 117.696C64.6883 117.747 64.5977 117.837 64.5443 117.968C64.491 118.096 64.4643 118.277 64.4643 118.512V119.44ZM70.4307 121C69.9 121 69.5053 120.872 69.2467 120.616C68.9907 120.357 68.8627 119.963 68.8627 119.432V118.512C68.8627 117.979 68.9907 117.584 69.2467 117.328C69.5053 117.072 69.9 116.944 70.4307 116.944H71.9827V115.704C71.9827 115.48 72.0947 115.368 72.3187 115.368C72.5427 115.368 72.6547 115.48 72.6547 115.704V120.664C72.6547 120.888 72.5427 121 72.3187 121C72.0947 121 71.9827 120.888 71.9827 120.664V120.608C71.8573 120.736 71.6933 120.833 71.4907 120.9C71.288 120.967 71.036 121 70.7347 121H70.4307ZM70.4307 120.328H70.7347C71.0867 120.328 71.3827 120.283 71.6227 120.192C71.8627 120.101 71.9827 119.963 71.9827 119.776V117.616H70.4307C70.084 117.616 69.848 117.68 69.7227 117.808C69.5973 117.933 69.5347 118.168 69.5347 118.512V119.432C69.5347 119.779 69.5973 120.015 69.7227 120.14C69.8507 120.265 70.0867 120.328 70.4307 120.328ZM74.7222 119.248V119.44C74.7222 119.784 74.7848 120.019 74.9102 120.144C75.0355 120.267 75.2715 120.328 75.6182 120.328H76.2742C76.5462 120.328 76.7475 120.303 76.8782 120.252C77.0088 120.201 77.0955 120.112 77.1382 119.984C77.1675 119.883 77.2075 119.805 77.2582 119.752C77.3115 119.699 77.3915 119.672 77.4982 119.672C77.6102 119.672 77.6955 119.701 77.7542 119.76C77.8128 119.819 77.8315 119.904 77.8102 120.016C77.7515 120.347 77.5942 120.593 77.3382 120.756C77.0822 120.919 76.7275 121 76.2742 121H75.6182C75.0875 121 74.6928 120.872 74.4342 120.616C74.1782 120.36 74.0502 119.968 74.0502 119.44V118.512C74.0502 117.971 74.1782 117.573 74.4342 117.32C74.6928 117.064 75.0875 116.939 75.6182 116.944H76.2742C76.8075 116.944 77.2022 117.072 77.4582 117.328C77.7142 117.581 77.8422 117.976 77.8422 118.512V118.912C77.8422 119.136 77.7302 119.248 77.5062 119.248H74.7222ZM75.6182 117.616C75.2715 117.611 75.0355 117.671 74.9102 117.796C74.7848 117.921 74.7222 118.16 74.7222 118.512V118.576H77.1702V118.512C77.1702 118.163 77.1075 117.927 76.9822 117.804C76.8595 117.679 76.6235 117.616 76.2742 117.616H75.6182ZM82.1641 121C81.9401 121 81.8281 120.888 81.8281 120.664V117.28C81.8281 117.056 81.9401 116.944 82.1641 116.944C82.3881 116.944 82.5001 117.056 82.5001 117.28V117.592C82.6574 117.379 82.8574 117.217 83.1001 117.108C83.3454 116.999 83.6254 116.944 83.9401 116.944C84.1641 116.944 84.2761 117.056 84.2761 117.28C84.2761 117.504 84.1641 117.616 83.9401 117.616C83.4788 117.616 83.1268 117.701 82.8841 117.872C82.6414 118.043 82.5134 118.268 82.5001 118.548V120.664C82.5001 120.888 82.3881 121 82.1641 121ZM85.5659 119.248V119.44C85.5659 119.784 85.6286 120.019 85.7539 120.144C85.8792 120.267 86.1152 120.328 86.4619 120.328H87.1179C87.3899 120.328 87.5912 120.303 87.7219 120.252C87.8526 120.201 87.9392 120.112 87.9819 119.984C88.0112 119.883 88.0512 119.805 88.1019 119.752C88.1552 119.699 88.2352 119.672 88.3419 119.672C88.4539 119.672 88.5392 119.701 88.5979 119.76C88.6566 119.819 88.6752 119.904 88.6539 120.016C88.5952 120.347 88.4379 120.593 88.1819 120.756C87.9259 120.919 87.5712 121 87.1179 121H86.4619C85.9312 121 85.5366 120.872 85.2779 120.616C85.0219 120.36 84.8939 119.968 84.8939 119.44V118.512C84.8939 117.971 85.0219 117.573 85.2779 117.32C85.5366 117.064 85.9312 116.939 86.4619 116.944H87.1179C87.6512 116.944 88.0459 117.072 88.3019 117.328C88.5579 117.581 88.6859 117.976 88.6859 118.512V118.912C88.6859 119.136 88.5739 119.248 88.3499 119.248H85.5659ZM86.4619 117.616C86.1152 117.611 85.8792 117.671 85.7539 117.796C85.6286 117.921 85.5659 118.16 85.5659 118.512V118.576H88.0139V118.512C88.0139 118.163 87.9512 117.927 87.8259 117.804C87.7032 117.679 87.4672 117.616 87.1179 117.616H86.4619ZM91.5322 121C91.0016 121 90.6069 120.872 90.3482 120.616C90.0922 120.357 89.9642 119.963 89.9642 119.432V118.504C89.9642 117.971 90.0909 117.576 90.3442 117.32C90.6002 117.064 90.9962 116.939 91.5322 116.944H92.1882C92.5856 116.944 92.8976 117.011 93.1242 117.144C93.3536 117.277 93.5002 117.483 93.5642 117.76C93.5882 117.872 93.5682 117.959 93.5042 118.02C93.4429 118.081 93.3536 118.112 93.2362 118.112C93.1322 118.112 93.0562 118.085 93.0082 118.032C92.9602 117.979 92.9162 117.904 92.8762 117.808C92.8362 117.736 92.7629 117.687 92.6562 117.66C92.5496 117.631 92.3936 117.616 92.1882 117.616H91.5322C91.1882 117.611 90.9522 117.671 90.8242 117.796C90.6989 117.919 90.6362 118.155 90.6362 118.504V119.432C90.6362 119.779 90.6989 120.015 90.8242 120.14C90.9522 120.265 91.1882 120.328 91.5322 120.328H92.1882C92.3936 120.328 92.5496 120.315 92.6562 120.288C92.7629 120.259 92.8362 120.208 92.8762 120.136C92.9162 120.035 92.9602 119.959 93.0082 119.908C93.0589 119.857 93.1376 119.832 93.2442 119.832C93.3562 119.832 93.4429 119.863 93.5042 119.924C93.5682 119.985 93.5882 120.072 93.5642 120.184C93.5002 120.459 93.3536 120.664 93.1242 120.8C92.8976 120.933 92.5856 121 92.1882 121H91.5322ZM95.4409 119.248V119.44C95.4409 119.784 95.5036 120.019 95.6289 120.144C95.7542 120.267 95.9902 120.328 96.3369 120.328H96.9929C97.2649 120.328 97.4662 120.303 97.5969 120.252C97.7276 120.201 97.8142 120.112 97.8569 119.984C97.8862 119.883 97.9262 119.805 97.9769 119.752C98.0302 119.699 98.1102 119.672 98.2169 119.672C98.3289 119.672 98.4142 119.701 98.4729 119.76C98.5316 119.819 98.5502 119.904 98.5289 120.016C98.4702 120.347 98.3129 120.593 98.0569 120.756C97.8009 120.919 97.4462 121 96.9929 121H96.3369C95.8062 121 95.4116 120.872 95.1529 120.616C94.8969 120.36 94.7689 119.968 94.7689 119.44V118.512C94.7689 117.971 94.8969 117.573 95.1529 117.32C95.4116 117.064 95.8062 116.939 96.3369 116.944H96.9929C97.5262 116.944 97.9209 117.072 98.1769 117.328C98.4329 117.581 98.5609 117.976 98.5609 118.512V118.912C98.5609 119.136 98.4489 119.248 98.2249 119.248H95.4409ZM96.3369 117.616C95.9902 117.611 95.7542 117.671 95.6289 117.796C95.5036 117.921 95.4409 118.16 95.4409 118.512V118.576H97.8889V118.512C97.8889 118.163 97.8262 117.927 97.7009 117.804C97.5782 117.679 97.3422 117.616 96.9929 117.616H96.3369ZM100.255 116.288C100.002 116.288 99.8752 116.16 99.8752 115.904V115.668C99.8752 115.417 100.002 115.292 100.255 115.292H100.487C100.73 115.292 100.851 115.417 100.851 115.668V115.904C100.851 116.16 100.73 116.288 100.487 116.288H100.255ZM100.367 121C100.143 121 100.031 120.888 100.031 120.664V117.28C100.031 117.056 100.143 116.944 100.367 116.944C100.591 116.944 100.703 117.056 100.703 117.28V120.664C100.703 120.888 100.591 121 100.367 121ZM102.703 122.6C102.479 122.6 102.367 122.488 102.367 122.264V117.28C102.367 117.056 102.479 116.944 102.703 116.944C102.927 116.944 103.039 117.056 103.039 117.28V117.38C103.183 117.236 103.36 117.128 103.571 117.056C103.784 116.981 104.023 116.944 104.287 116.944H104.591C105.124 116.944 105.519 117.072 105.775 117.328C106.031 117.584 106.159 117.979 106.159 118.512V119.432C106.159 119.963 106.031 120.357 105.775 120.616C105.519 120.872 105.124 121 104.591 121H103.039V122.264C103.039 122.488 102.927 122.6 102.703 122.6ZM103.039 120.328H104.591C104.94 120.328 105.176 120.265 105.299 120.14C105.424 120.015 105.487 119.779 105.487 119.432V118.512C105.487 118.163 105.424 117.927 105.299 117.804C105.176 117.679 104.94 117.616 104.591 117.616H104.287C103.954 117.616 103.666 117.656 103.423 117.736C103.18 117.816 103.052 117.943 103.039 118.116V120.328ZM108.113 119.248V119.44C108.113 119.784 108.175 120.019 108.301 120.144C108.426 120.267 108.662 120.328 109.009 120.328H109.665C109.937 120.328 110.138 120.303 110.269 120.252C110.399 120.201 110.486 120.112 110.529 119.984C110.558 119.883 110.598 119.805 110.649 119.752C110.702 119.699 110.782 119.672 110.889 119.672C111.001 119.672 111.086 119.701 111.145 119.76C111.203 119.819 111.222 119.904 111.201 120.016C111.142 120.347 110.985 120.593 110.729 120.756C110.473 120.919 110.118 121 109.665 121H109.009C108.478 121 108.083 120.872 107.825 120.616C107.569 120.36 107.441 119.968 107.441 119.44V118.512C107.441 117.971 107.569 117.573 107.825 117.32C108.083 117.064 108.478 116.939 109.009 116.944H109.665C110.198 116.944 110.593 117.072 110.849 117.328C111.105 117.581 111.233 117.976 111.233 118.512V118.912C111.233 119.136 111.121 119.248 110.897 119.248H108.113ZM109.009 117.616C108.662 117.611 108.426 117.671 108.301 117.796C108.175 117.921 108.113 118.16 108.113 118.512V118.576H110.561V118.512C110.561 118.163 110.498 117.927 110.373 117.804C110.25 117.679 110.014 117.616 109.665 117.616H109.009Z" fill="white"/>
<path d="M22.1952 98.2936C21.3984 98.2936 21 97.8952 21 97.0985V80.1957C21 79.3989 21.3984 79.0005 22.1952 79.0005H29.6221C31.1303 79.0005 32.2875 79.3989 33.0938 80.1957C33.9095 80.9924 34.3174 82.1307 34.3174 83.6104V84.3787C34.3174 85.6592 33.9142 86.6504 33.108 87.3523C34.6162 88.1965 35.3702 89.7379 35.3702 91.9764V92.9439C35.3702 94.6892 34.9055 96.0172 33.9759 96.9277C33.0558 97.8383 31.7279 98.2936 29.9921 98.2936H22.1952ZM23.3903 95.9033H29.9921C31.0639 95.9033 31.8275 95.6757 32.2828 95.2204C32.7476 94.7556 32.9799 93.9968 32.9799 92.9439V91.9764C32.9799 90.9235 32.757 90.1742 32.3112 89.7284C31.8654 89.2731 31.0924 89.0455 29.9921 89.0455H23.3903V95.9033ZM23.3903 86.6552C23.3903 86.6552 24.6889 86.6552 25.5209 86.6552C26.353 86.6552 27.6516 86.6552 27.6516 86.6552H30.1344C30.8268 86.6552 31.2963 86.4417 31.5429 86.0149C31.799 85.5881 31.9271 85.0427 31.9271 84.3787V83.6104C31.9271 82.7852 31.7563 82.2113 31.4149 81.8888C31.0734 81.5568 30.4758 81.3908 29.6221 81.3908H23.3903V86.6552Z" fill="white"/>
<path d="M49.8785 98.2936C49.4707 98.2936 49.1671 98.1988 48.9679 98.0091C48.7782 97.8099 48.6834 97.5064 48.6834 97.0985V80.2241C48.6834 79.8068 48.7782 79.5032 48.9679 79.3135C49.1671 79.1238 49.4707 79.029 49.8785 79.029C50.2959 79.029 50.5994 79.1238 50.7891 79.3135C50.9788 79.5032 51.0737 79.8068 51.0737 80.2241V97.0985C51.0737 97.5064 50.9788 97.8099 50.7891 98.0091C50.5994 98.1988 50.2959 98.2936 49.8785 98.2936Z" fill="white"/>
<path d="M66.7242 98.2936C65.9275 98.2936 65.5291 97.8952 65.5291 97.0985V80.1957C65.5291 79.3989 65.9275 79.0005 66.7242 79.0005H74.1512C75.6594 79.0005 76.8166 79.3989 77.6228 80.1957C78.4386 80.9924 78.8464 82.1307 78.8464 83.6104V84.3787C78.8464 85.6592 78.4433 86.6504 77.6371 87.3523C79.1452 88.1965 79.8993 89.7379 79.8993 91.9764V92.9439C79.8993 94.6892 79.4345 96.0172 78.505 96.9277C77.5849 97.8383 76.257 98.2936 74.5212 98.2936H66.7242ZM67.9194 95.9033H74.5212C75.593 95.9033 76.3566 95.6757 76.8118 95.2204C77.2766 94.7556 77.509 93.9968 77.509 92.9439V91.9764C77.509 90.9235 77.2861 90.1742 76.8403 89.7284C76.3945 89.2731 75.6214 89.0455 74.5212 89.0455H67.9194V95.9033ZM67.9194 86.6552H74.6634C75.3559 86.6552 75.8254 86.4417 76.072 86.0149C76.3281 85.5881 76.4562 85.0427 76.4562 84.3787V83.6104C76.4562 82.7852 76.2854 82.2113 75.9439 81.8888C75.6025 81.5568 75.0049 81.3908 74.1512 81.3908H67.9194V86.6552Z" fill="white"/>
<path d="M98.9037 98.2936C96.7315 98.2936 95.1238 97.7767 94.0804 96.7428C93.0465 95.6994 92.5295 94.0916 92.5295 91.9195V85.3462C92.5295 83.1551 93.0512 81.5473 94.0946 80.5229C95.138 79.489 96.741 78.9815 98.9037 79.0005H102.318C104.5 79.0005 106.108 79.5175 107.142 80.5514C108.176 81.5853 108.693 83.193 108.693 85.3746V91.9195C108.693 94.0916 108.176 95.6994 107.142 96.7428C106.108 97.7767 104.5 98.2936 102.318 98.2936H98.9037ZM98.9037 95.9033H102.318C103.333 95.9033 104.13 95.7848 104.709 95.5476C105.287 95.301 105.695 94.8884 105.932 94.3098C106.179 93.7312 106.302 92.9344 106.302 91.9195V85.3746C106.302 84.3692 106.179 83.5772 105.932 82.9986C105.695 82.42 105.287 82.0074 104.709 81.7607C104.13 81.5141 103.333 81.3908 102.318 81.3908H98.9037C97.8982 81.3813 97.1062 81.4951 96.5276 81.7323C95.949 81.9694 95.5364 82.3773 95.2898 82.9559C95.0431 83.5345 94.9198 84.3313 94.9198 85.3462V91.9195C94.9198 92.9344 95.0384 93.7312 95.2755 94.3098C95.5221 94.8884 95.9348 95.301 96.5134 95.5476C97.092 95.7848 97.8887 95.9033 98.9037 95.9033Z" fill="white"/>
<path d="M127.089 98.2936C126.691 98.2936 126.392 98.194 126.193 97.9948C125.994 97.7957 125.894 97.4969 125.894 97.0985V81.4193H120.374C119.975 81.4193 119.676 81.3197 119.477 81.1205C119.278 80.9213 119.179 80.6225 119.179 80.2241C119.179 79.8257 119.278 79.5269 119.477 79.3278C119.676 79.1286 119.975 79.029 120.374 79.029H133.805C134.203 79.029 134.502 79.1286 134.701 79.3278C134.9 79.5269 135 79.8257 135 80.2241C135 80.6225 134.9 80.9213 134.701 81.1205C134.502 81.3197 134.203 81.4193 133.805 81.4193H128.284V97.0985C128.284 97.4779 128.18 97.7719 127.971 97.9806C127.772 98.1893 127.478 98.2936 127.089 98.2936Z" fill="white"/>
<path d="M26.7801 87.8925C26.7801 88.9975 25.8843 89.8933 24.7793 89.8933C23.6743 89.8933 22.7785 88.9975 22.7785 87.8925C22.7785 86.7875 23.6743 85.8917 24.7793 85.8917C25.8843 85.8917 26.7801 86.7875 26.7801 87.8925Z" fill="white"/>
<path d="M71.4648 87.8925C71.4648 88.9975 70.569 89.8933 69.464 89.8933C68.359 89.8933 67.4632 88.9975 67.4632 87.8925C67.4632 86.7875 68.359 85.8917 69.464 85.8917C70.569 85.8917 71.4648 86.7875 71.4648 87.8925Z" fill="white"/>
</svg>
